HIERARCHY
ROOT Brekel_Pro_Hands
{
  OFFSET 0.0 0.0 0.0
  CHANNELS 6 Xposition Yposition Zposition Zrotation Xrotation Yrotation
  JOINT LeftHand
  {
    OFFSET 0.000 -26.700 0.000
    CHANNELS 6 Xposition Yposition Zposition Zrotation Xrotation Yrotation
    JOINT LeftHandThumb1
    {
      OFFSET -0.800 -4.350 4.280
      CHANNELS 3 Zrotation Xrotation Yrotation
      JOINT LeftHandThumb2
      {
        OFFSET -0.540 -2.510 0.710
        CHANNELS 3 Zrotation Xrotation Yrotation
        JOINT LeftHandThumb3
        {
          OFFSET 0.000 -2.540 0.000
          CHANNELS 3 Zrotation Xrotation Yrotation
          End Site
          {
            OFFSET 0.000 -2.670 0.000
          }
        }
      }
    }
    JOINT LeftHandIndex1
    {
      OFFSET 0.200 -8.820 3.470
      CHANNELS 3 Zrotation Xrotation Yrotation
      JOINT LeftHandIndex2
      {
        OFFSET 0.000 -4.220 0.150
        CHANNELS 3 Zrotation Xrotation Yrotation
        JOINT LeftHandIndex3
        {
          OFFSET 0.000 -2.650 0.090
          CHANNELS 3 Zrotation Xrotation Yrotation
          End Site
          {
            OFFSET 0.000 -1.960 0.070
          }
        }
      }
    }
    JOINT LeftHandMiddle1
    {
      OFFSET 0.500 -8.810 1.300
      CHANNELS 3 Zrotation Xrotation Yrotation
      JOINT LeftHandMiddle2
      {
        OFFSET 0.000 -4.860 0.000
        CHANNELS 3 Zrotation Xrotation Yrotation
        JOINT LeftHandMiddle3
        {
          OFFSET 0.000 -2.770 0.000
          CHANNELS 3 Zrotation Xrotation Yrotation
          End Site
          {
            OFFSET 0.000 -2.010 0.000
          }
        }
      }
    }
    JOINT LeftHandRing1
    {
      OFFSET 0.380 -8.890 -0.790
      CHANNELS 3 Zrotation Xrotation Yrotation
      JOINT LeftHandRing2
      {
        OFFSET 0.000 -4.540 0.000
        CHANNELS 3 Zrotation Xrotation Yrotation
        JOINT LeftHandRing3
        {
          OFFSET 0.000 -2.300 0.000
          CHANNELS 3 Zrotation Xrotation Yrotation
          End Site
          {
            OFFSET 0.000 -1.920 0.000
          }
        }
      }
    }
    JOINT LeftHandPinky1
    {
      OFFSET -0.310 -8.880 -2.490
      CHANNELS 3 Zrotation Xrotation Yrotation
      JOINT LeftHandPinky2
      {
        OFFSET 0.000 -3.040 0.000
        CHANNELS 3 Zrotation Xrotation Yrotation
        JOINT LeftHandPinky3
        {
          OFFSET 0.000 -1.970 0.000
          CHANNELS 3 Zrotation Xrotation Yrotation
          End Site
          {
            OFFSET 0.000 -1.670 0.000
          }
        }
      }
    }
  }
  JOINT RightHand
  {
    OFFSET 0.000 -26.700 0.000
    CHANNELS 6 Xposition Yposition Zposition Zrotation Xrotation Yrotation
    JOINT RightHandThumb1
    {
      OFFSET 0.800 -4.350 4.280
      CHANNELS 3 Zrotation Xrotation Yrotation
      JOINT RightHandThumb2
      {
        OFFSET 0.540 -2.510 0.710
        CHANNELS 3 Zrotation Xrotation Yrotation
        JOINT RightHandThumb3
        {
          OFFSET 0.000 -2.540 0.090
          CHANNELS 3 Zrotation Xrotation Yrotation
          End Site
          {
            OFFSET 0.000 -2.670 0.090
          }
        }
      }
    }
    JOINT RightHandIndex1
    {
      OFFSET -0.200 -8.820 3.470
      CHANNELS 3 Zrotation Xrotation Yrotation
      JOINT RightHandIndex2
      {
        OFFSET 0.000 -4.220 -0.150
        CHANNELS 3 Zrotation Xrotation Yrotation
        JOINT RightHandIndex3
        {
          OFFSET 0.000 -2.650 -0.090
          CHANNELS 3 Zrotation Xrotation Yrotation
          End Site
          {
            OFFSET 0.000 -1.960 -0.070
          }
        }
      }
    }
    JOINT RightHandMiddle1
    {
      OFFSET -0.500 -8.810 1.310
      CHANNELS 3 Zrotation Xrotation Yrotation
      JOINT RightHandMiddle2
      {
        OFFSET 0.000 -4.860 -0.170
        CHANNELS 3 Zrotation Xrotation Yrotation
        JOINT RightHandMiddle3
        {
          OFFSET 0.000 -2.760 -0.100
          CHANNELS 3 Zrotation Xrotation Yrotation
          End Site
          {
            OFFSET 0.000 -2.000 -0.070
          }
        }
      }
    }
    JOINT RightHandRing1
    {
      OFFSET -0.380 -8.890 -0.790
      CHANNELS 3 Zrotation Xrotation Yrotation
      JOINT RightHandRing2
      {
        OFFSET 0.000 -4.540 -0.160
        CHANNELS 3 Zrotation Xrotation Yrotation
        JOINT RightHandRing3
        {
          OFFSET 0.000 -2.300 -0.080
          CHANNELS 3 Zrotation Xrotation Yrotation
          End Site
          {
            OFFSET 0.000 -1.920 -0.070
          }
        }
      }
    }
    JOINT RightHandPinky1
    {
      OFFSET 0.310 -8.880 -2.490
      CHANNELS 3 Zrotation Xrotation Yrotation
      JOINT RightHandPinky2
      {
        OFFSET 0.000 -3.050 -0.110
        CHANNELS 3 Zrotation Xrotation Yrotation
        JOINT RightHandPinky3
        {
          OFFSET 0.000 -1.980 -0.070
          CHANNELS 3 Zrotation Xrotation Yrotation
          End Site
          {
            OFFSET 0.000 -1.670 -0.060
          }
        }
      }
    }
  }
}
MOTION
Frames:	9
Frame Time:	0.00881923
0 0 0 0 0 0 -14.00680 22.85336 38.11586 -145.58841 72.17043 -99.83842 -25.68264 -11.38645 0.81844 -6.55680 15.80451 2.58478 13.41217 -31.95352 2.28672 -8.39089 -23.53439 -3.37350 -10.18323 0.91859 -4.24177 -4.17075 0.50708 -1.70854 0.43977 7.95669 -0.06143 -0.00000 -0.00001 -0.00000 0.00001 -0.00001 -0.00000 -4.25439 -9.63832 -0.71359 0.00001 0.00000 0.00000 -59.34260 1.67893 -13.80443 22.99582 7.08104 -2.99351 -89.95403 -8.29867 -19.21884 -0.00000 -0.00003 -0.00000 15.25479 14.41651 29.57086 75.48590 84.95927 -175.49298 -0.30122 -41.31436 2.40616 10.65032 23.23403 -0.23106 0.13992 0.32542 0.00016 6.62435 -15.18180 1.74164 12.94175 0.94880 3.40329 8.63198 0.96650 2.15839 1.81543 -4.82197 0.15262 9.13308 -1.30232 0.98875 8.28755 -1.03801 1.06043 2.21608 4.56655 -0.17660 9.41393 -2.11312 -0.40503 7.65905 -1.75218 -0.09670 5.83179 19.58772 -1.95966 5.28731 -2.21036 -1.72461 5.90639 -2.68470 -1.63190 
0 0 0 0 0 0 -14.27713 23.50648 37.86499 -144.10764 71.43629 -100.70338 -27.03834 -11.35073 0.84036 -5.92197 14.96500 2.26843 13.02419 -32.09937 2.41716 -10.76743 -24.82211 -4.56449 -9.92502 1.12371 -4.52804 -4.80430 0.73038 -2.13170 0.58570 8.28015 -0.08435 0.00001 0.00003 -0.00000 0.00005 -0.00006 -0.00001 -4.43556 -9.67588 -0.74695 -0.00003 0.00001 -0.00001 -70.19108 4.75240 -14.50465 24.99477 7.36531 -3.42016 -89.95384 -8.59964 -19.12186 -89.95168 19.11643 -8.61545 15.93851 15.48060 29.51038 72.15773 84.44773 -171.83414 0.02067 -40.42731 2.60006 13.99711 29.06918 -2.17436 -6.00589 -13.62496 -0.55192 7.84899 -14.84120 2.02228 14.84368 1.29809 3.72007 8.69266 1.09095 2.04376 3.04527 -4.73324 0.25152 8.64931 -1.21772 0.90774 8.29659 -1.02794 1.03180 3.48845 4.66385 -0.28399 8.78313 -1.98724 -0.41613 7.26667 -1.67822 -0.13262 7.37252 19.13551 -2.42871 5.34433 -2.30695 -1.65830 5.38348 -2.49677 -1.41972 
0 0 0 0 0 0 -14.41746 23.59593 37.64143 -142.74146 71.76320 -102.29066 -28.17789 -11.84768 0.59115 -5.66916 14.82877 2.11145 12.73986 -32.20282 2.52742 -11.88501 -24.10069 -4.91190 -13.19242 1.89065 -5.70478 -3.53996 0.60726 -1.49167 0.45044 8.50455 -0.06662 -0.00002 0.00001 0.00001 0.00004 0.00001 -0.00001 -3.63882 -9.50915 -0.60194 0.00000 0.00004 0.00000 -72.22317 5.12916 -14.56810 25.32147 7.72012 -3.63689 -89.95379 -9.02479 -18.93117 -0.00002 0.00005 -0.00000 15.77373 16.08008 29.72100 86.77882 83.79613 172.49832 0.41572 -39.68305 3.04505 14.29341 29.77228 -2.56988 -10.96022 -23.40840 -2.64360 9.51661 -14.36224 2.38119 15.04974 1.40431 3.62415 7.07591 0.87446 1.61588 4.50367 -4.66407 0.36696 8.65860 -1.19902 0.89647 7.96609 -0.97645 0.97151 4.56556 4.63333 -0.36958 9.01450 -2.05215 -0.41305 6.69007 -1.55276 -0.12629 8.27434 18.34644 -2.62087 5.79867 -2.54342 -1.69006 5.42709 -2.54580 -1.32475 
0 0 0 0 0 0 -14.43980 23.58645 37.60771 -142.33452 71.88770 -102.54464 -28.96965 -11.86668 0.47491 -5.86069 15.42929 2.23491 12.58906 -32.25624 2.39256 -12.96850 -23.24873 -5.19154 -14.82679 2.33974 -6.16572 -3.11257 0.55530 -1.27967 0.48757 8.25388 -0.06997 -0.00000 0.00000 0.00000 0.00004 -0.00001 -0.00001 -2.60331 -9.28562 -0.42102 0.00001 0.00003 0.00000 -71.88055 4.89615 -14.60864 26.05737 8.23865 -4.00944 -89.95446 -9.35115 -18.77805 -0.00002 0.00004 -0.00000 15.58227 16.06685 29.74573 89.55345 82.95658 169.30429 3.03326 -39.96653 5.32931 13.75154 29.60943 -2.36415 -11.32194 -24.58516 -3.06187 11.98814 -14.30545 3.00353 14.86767 1.44104 3.57519 7.44286 0.95988 1.68532 6.09498 -4.62118 0.49286 9.36992 -1.27276 0.98193 7.81962 -0.94254 0.95849 5.93058 4.63349 -0.48080 8.64124 -1.97123 -0.40820 6.82678 -1.58886 -0.13471 9.35824 18.27136 -2.95769 5.76441 -2.54354 -1.67882 5.56872 -2.63145 -1.34963 
0 0 0 0 0 0 -14.70082 23.38890 37.13513 -135.92712 73.49946 -106.99615 -29.94601 -11.31787 0.50412 -6.92709 18.37764 3.01244 11.97356 -32.46804 1.60415 -15.01880 -21.96167 -5.72993 -20.69660 4.17757 -7.47122 -0.00005 0.00005 -0.00002 2.15857 6.65035 -0.25010 -0.00001 -0.00001 0.00000 -0.00003 0.00004 0.00000 -0.66689 -8.85102 -0.10262 0.00001 -0.00000 0.00000 -69.02328 3.44238 -14.71293 27.50329 9.48504 -4.90376 -89.95348 -11.20786 -17.84422 -0.00001 -0.00005 -0.00000 13.48234 15.42013 29.96323 95.24226 77.28300 160.30141 5.94912 -39.34750 7.38484 12.55290 30.04815 -2.19723 -11.45471 -26.92202 -3.51780 14.41562 -13.91395 3.53699 13.69355 1.46445 3.21518 10.24166 1.51612 2.16728 8.61390 -5.59088 0.84553 10.61425 -1.32803 1.31169 4.76636 -0.54707 0.64100 7.57602 4.05262 -0.53854 7.51404 -1.72354 -0.31261 8.05277 -1.87631 -0.07205 10.43779 17.53538 -3.17685 5.32744 -2.38647 -1.49291 6.46878 -3.11685 -1.44536 
0 0 0 0 0 0 -14.73546 23.32175 36.69087 -135.71301 76.39875 -106.93549 -30.46944 -11.53525 0.76313 -7.49072 19.50162 3.37138 11.99498 -32.46089 1.38733 -14.62146 -20.20440 -5.14848 -24.16309 4.91163 -7.58117 -0.00001 -0.00003 -0.00000 5.33841 2.01235 -0.18800 0.00006 -0.00004 -0.00000 -3.19640 -0.46235 0.08709 2.00657 -6.57169 0.22974 0.00001 -0.00002 -0.00000 -62.99846 -0.20795 -13.48251 29.78832 11.89536 -6.72939 -89.95294 -14.18868 -16.06608 0.00001 0.00001 0.00000 12.47527 15.15194 29.96660 90.10983 77.38116 165.94768 6.85048 -38.98107 7.73878 12.57026 30.22534 -2.32496 -9.13353 -22.78846 -2.05904 16.03312 -13.64396 3.87799 13.89887 1.57678 3.19161 9.42699 1.42106 1.95782 10.33594 -6.23137 1.13408 11.61061 -1.35956 1.58564 4.24623 -0.45501 0.62059 9.04909 3.53565 -0.56272 7.64726 -1.75866 -0.24500 7.43739 -1.72799 -0.01434 11.13291 17.11898 -3.31522 5.56748 -2.52018 -1.50619 5.88391 -2.84128 -1.28556 
0 0 0 0 0 0 -14.80466 23.15573 36.37304 -124.24223 77.42256 -116.21015 -29.95868 -10.82866 0.17580 -7.57846 20.15415 3.51541 11.64601 -32.57543 1.18201 -15.63326 -18.69846 -5.12630 -22.10889 4.10444 -6.51822 -0.00007 0.00007 -0.00002 6.53480 -1.47000 0.16837 -0.00003 0.00002 -0.00000 -8.07197 -1.24244 -0.38602 4.51047 0.45734 -0.03608 -0.00003 0.00004 0.00000 -59.40439 -5.94897 -9.18166 31.81873 13.81836 -8.42976 -89.95239 -16.64539 -14.32617 -0.00001 0.00002 -0.00000 12.11476 15.46797 30.12483 86.60135 78.80089 170.62401 6.83426 -38.67874 7.19287 12.88696 30.17054 -2.49104 -6.82620 -17.39684 -0.83013 17.04160 -13.36195 4.05198 14.47568 1.71396 3.23323 8.72321 1.32891 1.76889 11.64372 -6.60655 1.35812 12.30208 -1.36604 1.77513 4.67369 -0.46459 0.72143 10.14798 3.06842 -0.54894 7.96132 -1.83083 -0.18014 6.83542 -1.58094 0.03383 11.50092 16.69844 -3.34591 5.94764 -2.71056 -1.54329 5.50695 -2.66121 -1.15946 
0 0 0 0 0 0 -14.79369 23.12312 36.33969 -123.77561 77.29575 -116.71993 -28.21697 -11.17488 -0.51881 -7.68726 20.24898 3.53629 11.76807 -32.53553 1.23694 -15.54269 -18.54820 -5.05602 -21.88345 4.01404 -6.43567 -0.00006 0.00005 -0.00002 6.70908 -3.33171 0.39321 -1.32068 -0.22520 -0.11063 -10.20844 -1.52425 -0.88098 4.74194 1.36088 -0.11390 -0.00002 0.00003 0.00000 -57.51267 -6.44864 -8.46722 31.72353 14.45777 -8.77297 -89.95398 -17.08330 -14.04473 0.00000 0.00000 0.00000 12.13106 15.70152 30.22203 85.91841 80.13141 171.58066 6.29522 -37.83344 5.05212 12.99040 29.48608 -2.46843 -6.51309 -16.14073 -0.66788 16.83306 -12.76540 3.82466 14.66245 1.71321 3.19834 8.67687 1.30144 1.72105 11.87651 -6.35907 1.33431 12.19768 -1.36195 1.73510 4.80564 -0.47974 0.73287 10.35825 2.97266 -0.54307 7.52974 -1.73065 -0.17786 6.57769 -1.52115 0.01984 10.94568 15.73671 -3.00295 5.47630 -2.47034 -1.40212 5.04013 -2.40243 -1.06546 
0 0 0 0 0 0 -14.53365 22.65326 36.05039 -116.49705 75.48231 -124.12030 -24.27050 -11.46296 -1.92612 -8.99279 22.27348 4.28649 12.13976 -32.41215 0.97810 -15.68806 -18.08361 -4.98250 -22.35954 4.06342 -6.32649 -0.00001 0.00002 -0.00000 5.54789 -6.33908 0.61446 -2.70921 -0.47046 -0.32487 -14.67872 -1.98554 -2.32122 4.89938 2.43726 -0.20886 -10.37154 -2.29082 0.02846 -40.24669 -6.28344 -5.16062 31.29906 14.75135 -8.80002 -89.95213 -17.61296 -13.75905 -89.95304 13.74619 -17.62412 12.23292 17.25059 30.83120 93.11872 82.19652 163.43597 11.40694 -34.70488 6.79839 9.15438 22.15148 -1.05472 -3.72278 -9.48424 -0.20244 18.11209 -12.10420 3.92356 16.82945 2.05412 3.28961 11.38379 1.82083 1.90609 12.87432 -6.42993 1.46621 11.92357 -1.31840 1.67677 4.59458 -0.45676 0.69101 9.64325 2.39270 -0.40643 8.22841 -1.86976 -0.08065 6.50566 -1.47799 0.10434 9.93234 15.62936 -2.70103 6.73000 -3.00317 -1.56372 6.57631 -3.12000 -1.15655 
